<svg xmlns="http://www.w3.org/2000/svg" width="1024" height="1024" viewBox="0 0 1024 1024">
<g>
<path d="M 0.00 0.00 L 1024.00 0.00 L 1024.00 1024.00 L 0.00 1024.00 ZM 455.14 603.77 C456.89,604.65 472.01,604.87 513.50,604.62 C559.84,604.35 571.18,604.01 579.27,602.64 C637.10,592.87 681.52,561.04 708.31,510.19 C711.01,505.07 712.96,500.63 712.65,500.32 C712.35,500.01 713.37,497.23 714.92,494.13 C718.59,486.83 722.31,474.38 725.13,460.00 C727.86,446.05 728.40,415.51 726.14,403.00 C720.27,370.51 709.97,346.04 692.07,322.03 C670.51,293.11 638.88,272.08 603.50,263.14 C583.20,258.01 582.78,258.00 456.23,258.00 C341.52,258.00 338.16,258.05 335.86,259.91 L 333.50 261.82 L 333.50 289.34 C333.50,315.57 333.60,316.98 335.56,319.62 C336.70,321.13 338.87,323.30 340.38,324.44 C343.13,326.49 343.97,326.50 459.32,327.05 C546.72,327.47 576.61,327.91 580.00,328.83 C601.68,334.76 615.08,342.11 627.84,355.07 C640.18,367.60 648.33,382.65 653.02,401.55 C661.76,436.79 650.91,474.45 624.52,500.50 C606.91,517.88 584.91,526.24 552.04,528.06 C529.02,529.34 516.09,532.18 502.29,538.99 C480.93,549.55 465.09,566.19 456.83,586.75 C455.12,591.01 453.51,596.32 453.25,598.55 C452.85,602.04 453.11,602.76 455.14,603.77 ZM 339.47 767.05 C343.84,768.81 360.62,764.38 373.50,758.05 C395.35,747.33 409.97,729.26 415.99,705.59 C417.94,697.90 418.00,694.58 418.00,585.34 L 418.00 473.00 L 376.25 473.00 L 334.50 473.00 L 334.69 618.08 C334.87,756.03 334.72,764.81 338.13,766.54 C338.53,766.74 338.97,766.85 339.47,767.05 ZM 334.44 456.90 C334.92,457.67 348.11,457.99 378.81,457.98 L 422.50 457.96 L 463.25 417.89 C485.66,395.85 504.00,377.41 504.00,376.91 C504.00,376.38 486.03,376.00 460.62,376.00 C425.15,376.00 416.63,376.26 413.87,377.44 C409.55,379.28 333.49,455.37 334.44,456.90 Z" fill="rgb(15,15,15)"/>
<path d="M 333.59 261.75 L 333.88 287.52 C334.05,303.19 334.57,313.94 335.21,314.96 C335.78,315.88 337.85,317.73 339.80,319.07 L 343.35 321.50 L 458.43 322.06 C579.58,322.66 575.68,322.52 589.50,326.88 C595.33,328.72 605.56,333.23 609.82,335.85 C616.76,340.11 630.36,351.47 633.52,355.65 C635.12,357.77 637.48,360.62 638.76,362.00 C641.62,365.09 648.25,378.60 650.54,386.00 C651.48,389.02 652.85,393.38 653.59,395.69 C654.67,399.04 655.43,408.47 655.69,418.10 C655.26,412.56 654.38,407.02 653.02,401.55 C648.33,382.65 640.18,367.60 627.84,355.07 C615.08,342.11 601.68,334.76 580.00,328.83 C576.61,327.91 546.72,327.47 459.32,327.05 C343.97,326.50 343.13,326.49 340.38,324.44 C338.87,323.30 336.70,321.13 335.56,319.62 C333.60,316.98 333.50,315.57 333.50,289.34 L 333.50 261.82 ZM 455.14 603.77 C453.41,602.91 452.97,602.27 453.12,599.95 L 465.13 600.26 C471.93,600.43 498.42,600.50 524.00,600.40 C562.15,600.26 572.30,599.93 580.50,598.56 C616.07,592.62 643.63,579.72 669.55,556.86 C675.30,551.79 680.00,547.33 680.00,546.94 C680.00,546.55 681.97,544.27 684.38,541.87 C688.60,537.66 702.00,518.76 702.00,517.02 C702.00,516.55 702.34,516.02 702.75,515.83 C703.16,515.65 704.32,513.92 705.32,512.00 C709.31,504.31 710.96,501.64 712.20,500.85 C712.40,500.73 712.56,500.61 712.68,500.50 C712.61,501.43 710.77,505.53 708.31,510.19 C681.52,561.04 637.10,592.87 579.27,602.64 C571.18,604.01 559.84,604.35 513.50,604.62 C472.01,604.87 456.89,604.65 455.14,603.77 ZM 334.44 456.90 C334.36,456.77 334.83,456.11 335.76,455.00 L 379.00 454.99 L 422.50 454.99 L 457.50 420.40 C476.75,401.38 494.87,383.61 497.76,380.91 L 502.34 376.64 C503.42,376.72 504.00,376.82 504.00,376.91 C504.00,377.41 485.66,395.85 463.25,417.89 L 422.50 457.96 L 378.81 457.98 C348.11,457.99 334.92,457.67 334.44,456.90 ZM 339.47 767.05 C338.97,766.85 338.53,766.74 338.13,766.54 C337.20,766.07 336.54,765.07 336.06,761.08 L 337.70 762.20 C339.99,763.76 341.57,763.99 346.34,763.49 C359.87,762.07 381.52,752.62 390.53,744.20 C397.92,737.29 407.03,725.90 407.68,722.76 C407.99,721.26 409.40,718.79 410.80,717.27 C411.85,716.14 413.27,713.67 414.39,711.13 C407.60,732.09 393.61,748.18 373.50,758.05 C360.62,764.38 343.84,768.81 339.47,767.05 ZM 373.50 416.93 L 337.56 452.95 C351.81,437.08 410.10,379.04 413.87,377.44 C414.41,377.21 415.17,377.01 416.30,376.85 C415.28,377.01 414.63,377.21 414.20,377.43 C412.72,378.22 394.40,396.00 373.50,416.93 ZM 416.67 702.48 C417.50,693.76 417.57,670.72 417.77,587.75 L 418.00 490.38 L 418.00 585.34 C418.00,680.01 417.96,695.13 416.67,702.48 ZM 334.82 696.06 C334.76,676.24 334.74,650.79 334.69,618.08 L 334.50 473.00 L 334.70 616.65 ZM 456.25 588.24 C456.44,587.74 456.63,587.23 456.83,586.75 C458.01,583.80 459.35,580.93 460.84,578.16 C459.24,581.28 457.60,584.89 456.25,588.24 ZM 655.40 436.93 C655.30,438.08 655.19,439.12 655.06,440.02 C654.73,442.25 654.34,444.46 653.87,446.65 C654.53,443.43 655.04,440.19 655.40,436.93 ZM 712.64 499.76 C712.69,499.03 713.56,496.83 714.86,494.25 C713.69,496.60 712.83,498.76 712.64,499.76 Z" fill="rgb(124,171,209)"/>
<path d="M 337.70 762.20 L 334.91 760.30 L 334.70 616.65 L 334.50 473.00 L 376.27 473.00 L 418.04 473.00 L 417.77 587.75 C417.50,700.80 417.47,702.59 415.43,708.50 C414.29,711.80 412.21,715.75 410.80,717.27 C409.40,718.79 407.99,721.26 407.68,722.76 C407.03,725.90 397.92,737.29 390.53,744.20 C381.52,752.62 359.87,762.07 346.34,763.49 C341.57,763.99 339.99,763.76 337.70,762.20 ZM 465.13 600.26 L 452.76 599.94 L 453.36 596.93 C454.41,591.68 459.81,579.20 463.60,573.25 C472.92,558.63 486.02,547.03 502.29,538.99 C516.09,532.18 529.02,529.34 552.04,528.06 C584.91,526.24 606.91,517.88 624.52,500.50 C640.91,484.32 651.71,462.94 655.06,440.02 C656.54,429.87 655.62,402.00 653.59,395.69 C652.85,393.38 651.48,389.02 650.54,386.00 C648.25,378.60 641.62,365.09 638.76,362.00 C637.48,360.62 635.12,357.77 633.52,355.65 C630.36,351.47 616.76,340.11 609.82,335.85 C605.56,333.23 595.33,328.72 589.50,326.88 C575.68,322.52 579.58,322.66 458.43,322.06 L 343.35 321.50 L 339.80 319.07 C337.85,317.73 335.78,315.88 335.21,314.96 C334.57,313.94 334.05,303.19 333.88,287.52 L 333.59 261.75 L 335.91 259.87 C338.14,258.07 342.37,258.00 456.23,258.00 C582.78,258.00 583.20,258.01 603.50,263.14 C638.88,272.08 670.51,293.11 692.07,322.03 C709.97,346.04 720.27,370.51 726.14,403.00 C728.40,415.51 727.86,446.05 725.13,460.00 C722.30,474.45 718.59,486.83 714.86,494.25 C713.27,497.41 712.32,500.01 712.74,500.02 C713.16,500.02 712.92,500.40 712.20,500.85 C710.96,501.64 709.31,504.31 705.32,512.00 C704.32,513.92 703.16,515.65 702.75,515.83 C702.34,516.02 702.00,516.55 702.00,517.02 C702.00,518.76 688.60,537.66 684.38,541.87 C681.97,544.27 680.00,546.55 680.00,546.94 C680.00,547.33 675.30,551.79 669.55,556.86 C643.63,579.72 616.07,592.62 580.50,598.56 C572.30,599.93 562.15,600.26 524.00,600.40 C498.42,600.50 471.93,600.43 465.13,600.26 ZM 373.50 416.93 C394.40,396.00 412.72,378.22 414.20,377.43 C416.43,376.25 424.48,376.00 459.96,376.00 L 503.02 376.00 L 497.76 380.91 C494.87,383.61 476.75,401.38 457.50,420.40 L 422.50 454.99 L 379.00 454.99 L 335.51 455.00 L 373.50 416.93 Z" fill="rgb(141,204,251)"/>
</g>
</svg>